<?xml version="1.0" encoding="utf-8" standalone="no"?>
<!DOCTYPE svg PUBLIC "-//W3C//DTD SVG 1.1//EN"
  "http://www.w3.org/Graphics/SVG/1.1/DTD/svg11.dtd">
<!-- Created with matplotlib (http://matplotlib.org/) -->
<svg height="155pt" version="1.1" viewBox="0 0 214 155" width="214pt" xmlns="http://www.w3.org/2000/svg" xmlns:xlink="http://www.w3.org/1999/xlink">
 <defs>
  <style type="text/css">
*{stroke-linecap:butt;stroke-linejoin:round;}
  </style>
 </defs>
 <g id="figure_1">
  <g id="patch_1">
   <path d="
M0 155.039
L214.355 155.039
L214.355 0
L0 0
L0 155.039" style="fill:none;stroke:#ffffff;stroke-linejoin:miter;stroke-width:4;"/>
   <path d="
M0 155.039
L214.355 155.039
L214.355 0
L0 0
L0 155.039" style="fill:none;"/>
   <g id="axes_1">
    <path clip-path="url(#pc8fe68db7b)" d="
M56.055 125.195
L56.055 94.595
L56.055 94.595
M56.055 63.995
L56.055 63.995
L56.055 33.395" style="fill:none;stroke:#ffffff;stroke-linecap:round;stroke-width:4;"/>
    <path clip-path="url(#pc8fe68db7b)" d="
M56.055 125.195
L56.055 94.595
L56.055 94.595
M56.055 63.995
L56.055 63.995
L56.055 33.395" style="fill:none;stroke:#000000;stroke-linecap:round;stroke-width:1.5;"/>
    <path clip-path="url(#pc8fe68db7b)" d="
M59.295 86.945
L52.815 86.945" style="fill:none;stroke:#ffffff;stroke-linecap:round;stroke-width:4;"/>
    <path clip-path="url(#pc8fe68db7b)" d="
M59.295 86.945
L52.815 86.945" style="fill:none;stroke:#000000;stroke-linecap:round;stroke-width:1.5;"/>
    <path clip-path="url(#pc8fe68db7b)" d="
M56.055 74.705
L56.055 68.585" style="fill:none;stroke:#ffffff;stroke-linecap:round;stroke-width:4;"/>
    <path clip-path="url(#pc8fe68db7b)" d="
M56.055 74.705
L56.055 68.585" style="fill:none;stroke:#000000;stroke-linecap:round;stroke-width:1.5;"/>
    <path clip-path="url(#pc8fe68db7b)" d="
M59.295 71.645
L52.815 71.645" style="fill:none;stroke:#ffffff;stroke-linecap:round;stroke-width:4;"/>
    <path clip-path="url(#pc8fe68db7b)" d="
M59.295 71.645
L52.815 71.645" style="fill:none;stroke:#000000;stroke-linecap:round;stroke-width:1.5;"/>
    <path clip-path="url(#pc8fe68db7b)" d="
M56.055 33.395
L88.455 33.395
L91.155 25.745
L96.555 41.045
L101.955 25.745
L107.355 41.045
L112.755 25.745
L118.155 41.045
L120.855 33.395
L153.255 33.395" style="fill:none;stroke:#ffffff;stroke-linecap:round;stroke-width:4;"/>
    <path clip-path="url(#pc8fe68db7b)" d="
M56.055 33.395
L88.455 33.395
L91.155 25.745
L96.555 41.045
L101.955 25.745
L107.355 41.045
L112.755 25.745
L118.155 41.045
L120.855 33.395
L153.255 33.395" style="fill:none;stroke:#000000;stroke-linecap:round;stroke-width:1.5;"/>
    <path clip-path="url(#pc8fe68db7b)" d="
M153.255 33.395
L153.255 76.541
M161.355 76.541
L145.155 76.541
M161.355 82.049
L145.155 82.049
M153.255 82.049
L153.255 125.195" style="fill:none;stroke:#ffffff;stroke-linecap:round;stroke-width:4;"/>
    <path clip-path="url(#pc8fe68db7b)" d="
M153.255 33.395
L153.255 76.541
M161.355 76.541
L145.155 76.541
M161.355 82.049
L145.155 82.049
M153.255 82.049
L153.255 125.195" style="fill:none;stroke:#000000;stroke-linecap:round;stroke-width:1.5;"/>
    <path clip-path="url(#pc8fe68db7b)" d="
M153.255 125.195
L104.655 125.195
L56.055 125.195" style="fill:none;stroke:#ffffff;stroke-linecap:round;stroke-width:4;"/>
    <path clip-path="url(#pc8fe68db7b)" d="
M153.255 125.195
L104.655 125.195
L56.055 125.195" style="fill:none;stroke:#000000;stroke-linecap:round;stroke-width:1.5;"/>
    <path clip-path="url(#pc8fe68db7b)" d="
M56.055 125.195
L56.055 137.435
L47.955 137.435
L64.155 137.435
M50.385 141.107
L61.725 141.107
M54.435 144.779
L57.675 144.779" style="fill:none;stroke:#ffffff;stroke-linecap:round;stroke-width:4;"/>
    <path clip-path="url(#pc8fe68db7b)" d="
M56.055 125.195
L56.055 137.435
L47.955 137.435
L64.155 137.435
M50.385 141.107
L61.725 141.107
M54.435 144.779
L57.675 144.779" style="fill:none;stroke:#000000;stroke-linecap:round;stroke-width:1.5;"/>
    <g id="patch_2">
     <path clip-path="url(#pc8fe68db7b)" d="
M56.055 94.595
C60.3513 94.595 64.4722 92.9829 67.5101 90.1137
C70.5481 87.2446 72.255 83.3526 72.255 79.295
C72.255 75.2374 70.5481 71.3454 67.5101 68.4763
C64.4722 65.6071 60.3513 63.995 56.055 63.995
C51.7587 63.995 47.6378 65.6071 44.5999 68.4763
C41.5619 71.3454 39.855 75.2374 39.855 79.295
C39.855 83.3526 41.5619 87.2446 44.5999 90.1137
C47.6378 92.9829 51.7587 94.595 56.055 94.595
L56.055 94.595" style="fill:none;stroke:#ffffff;stroke-linejoin:miter;stroke-width:4;"/>
     <path clip-path="url(#pc8fe68db7b)" d="
M56.055 94.595
C60.3513 94.595 64.4722 92.9829 67.5101 90.1137
C70.5481 87.2446 72.255 83.3526 72.255 79.295
C72.255 75.2374 70.5481 71.3454 67.5101 68.4763
C64.4722 65.6071 60.3513 63.995 56.055 63.995
C51.7587 63.995 47.6378 65.6071 44.5999 68.4763
C41.5619 71.3454 39.855 75.2374 39.855 79.295
C39.855 83.3526 41.5619 87.2446 44.5999 90.1137
C47.6378 92.9829 51.7587 94.595 56.055 94.595
L56.055 94.595" style="fill:none;stroke:#000000;stroke-linejoin:miter;stroke-width:1.5;"/>
     <g id="text_1">
      <path d="
M9.185 82.3825
L11.7625 82.3825
L11.7625 73.4825
L8.9575 74.045
L8.9575 72.6075
L11.7475 72.045
L13.325 72.045
L13.325 82.3825
L15.9025 82.3825
L15.9025 83.71
L9.185 83.71
z

M22.4647 73.085
Q21.2472 73.085 20.6322 74.285
Q20.0197 75.4825 20.0197 77.89
Q20.0197 80.2875 20.6322 81.4875
Q21.2472 82.6875 22.4647 82.6875
Q23.6922 82.6875 24.3047 81.4875
Q24.9197 80.2875 24.9197 77.89
Q24.9197 75.4825 24.3047 74.285
Q23.6922 73.085 22.4647 73.085
M22.4647 71.835
Q24.4272 71.835 25.4622 73.3875
Q26.4972 74.9375 26.4972 77.89
Q26.4972 80.835 25.4622 82.3875
Q24.4272 83.9375 22.4647 83.9375
Q20.5047 83.9375 19.4697 82.3875
Q18.4347 80.835 18.4347 77.89
Q18.4347 74.9375 19.4697 73.3875
Q20.5047 71.835 22.4647 71.835
M32.1369 83.71
L27.6844 72.045
L29.3319 72.045
L33.0294 81.865
L36.7319 72.045
L38.3719 72.045
L33.9269 83.71
z
" style="stroke:#ffffff;stroke-width:4;"/>
      <path d="
M9.185 82.3825
L11.7625 82.3825
L11.7625 73.4825
L8.9575 74.045
L8.9575 72.6075
L11.7475 72.045
L13.325 72.045
L13.325 82.3825
L15.9025 82.3825
L15.9025 83.71
L9.185 83.71
z

M22.4647 73.085
Q21.2472 73.085 20.6322 74.285
Q20.0197 75.4825 20.0197 77.89
Q20.0197 80.2875 20.6322 81.4875
Q21.2472 82.6875 22.4647 82.6875
Q23.6922 82.6875 24.3047 81.4875
Q24.9197 80.2875 24.9197 77.89
Q24.9197 75.4825 24.3047 74.285
Q23.6922 73.085 22.4647 73.085
M22.4647 71.835
Q24.4272 71.835 25.4622 73.3875
Q26.4972 74.9375 26.4972 77.89
Q26.4972 80.835 25.4622 82.3875
Q24.4272 83.9375 22.4647 83.9375
Q20.5047 83.9375 19.4697 82.3875
Q18.4347 80.835 18.4347 77.89
Q18.4347 74.9375 19.4697 73.3875
Q20.5047 71.835 22.4647 71.835
M32.1369 83.71
L27.6844 72.045
L29.3319 72.045
L33.0294 81.865
L36.7319 72.045
L38.3719 72.045
L33.9269 83.71
z
"/>
      <g id="text_2">
       <path d="
M80 17.905
L82.5775 17.905
L82.5775 9.005
L79.7725 9.5675
L79.7725 8.13
L82.5625 7.5675
L84.14 7.5675
L84.14 17.905
L86.7175 17.905
L86.7175 19.2325
L80 19.2325
z

M93.2797 8.6075
Q92.0622 8.6075 91.4472 9.8075
Q90.8347 11.005 90.8347 13.4125
Q90.8347 15.81 91.4472 17.01
Q92.0622 18.21 93.2797 18.21
Q94.5072 18.21 95.1197 17.01
Q95.7347 15.81 95.7347 13.4125
Q95.7347 11.005 95.1197 9.8075
Q94.5072 8.6075 93.2797 8.6075
M93.2797 7.3575
Q95.2422 7.3575 96.2772 8.91
Q97.3122 10.46 97.3122 13.4125
Q97.3122 16.3575 96.2772 17.91
Q95.2422 19.46 93.2797 19.46
Q91.3197 19.46 90.2847 17.91
Q89.2497 16.3575 89.2497 13.4125
Q89.2497 10.46 90.2847 8.91
Q91.3197 7.3575 93.2797 7.3575
M103.459 8.6075
Q102.242 8.6075 101.627 9.8075
Q101.014 11.005 101.014 13.4125
Q101.014 15.81 101.627 17.01
Q102.242 18.21 103.459 18.21
Q104.687 18.21 105.299 17.01
Q105.914 15.81 105.914 13.4125
Q105.914 11.005 105.299 9.8075
Q104.687 8.6075 103.459 8.6075
M103.459 7.3575
Q105.422 7.3575 106.457 8.91
Q107.492 10.46 107.492 13.4125
Q107.492 16.3575 106.457 17.91
Q105.422 19.46 103.459 19.46
Q101.499 19.46 100.464 17.91
Q99.4294 16.3575 99.4294 13.4125
Q99.4294 10.46 100.464 8.91
Q101.499 7.3575 103.459 7.3575
M110.124 7.5675
L111.702 7.5675
L111.702 12.4975
L116.937 7.5675
L118.969 7.5675
L113.179 13.005
L119.382 19.2325
L117.304 19.2325
L111.702 13.615
L111.702 19.2325
L110.124 19.2325
z

M130.664 17.8425
L130.664 19.2325
L125.976 19.2325
L125.976 17.8425
Q127.359 17.085 128.131 15.7875
Q128.906 14.49 128.906 12.9125
Q128.906 11.0375 127.874 9.905
Q126.844 8.7725 125.156 8.7725
Q123.469 8.7725 122.434 9.91
Q121.399 11.045 121.399 12.9125
Q121.399 14.49 122.176 15.7875
Q122.954 17.085 124.344 17.8425
L124.344 19.2325
L119.656 19.2325
L119.656 17.8425
L122.149 17.8425
Q120.914 16.755 120.346 15.5925
Q119.781 14.4275 119.781 12.99
Q119.781 10.505 121.276 8.9675
Q122.774 7.4275 125.156 7.4275
Q127.524 7.4275 129.026 8.9625
Q130.531 10.4975 130.531 12.9125
Q130.531 14.4275 129.976 15.585
Q129.421 16.74 128.164 17.8425
z
" style="stroke:#ffffff;stroke-width:4;"/>
       <path d="
M80 17.905
L82.5775 17.905
L82.5775 9.005
L79.7725 9.5675
L79.7725 8.13
L82.5625 7.5675
L84.14 7.5675
L84.14 17.905
L86.7175 17.905
L86.7175 19.2325
L80 19.2325
z

M93.2797 8.6075
Q92.0622 8.6075 91.4472 9.8075
Q90.8347 11.005 90.8347 13.4125
Q90.8347 15.81 91.4472 17.01
Q92.0622 18.21 93.2797 18.21
Q94.5072 18.21 95.1197 17.01
Q95.7347 15.81 95.7347 13.4125
Q95.7347 11.005 95.1197 9.8075
Q94.5072 8.6075 93.2797 8.6075
M93.2797 7.3575
Q95.2422 7.3575 96.2772 8.91
Q97.3122 10.46 97.3122 13.4125
Q97.3122 16.3575 96.2772 17.91
Q95.2422 19.46 93.2797 19.46
Q91.3197 19.46 90.2847 17.91
Q89.2497 16.3575 89.2497 13.4125
Q89.2497 10.46 90.2847 8.91
Q91.3197 7.3575 93.2797 7.3575
M103.459 8.6075
Q102.242 8.6075 101.627 9.8075
Q101.014 11.005 101.014 13.4125
Q101.014 15.81 101.627 17.01
Q102.242 18.21 103.459 18.21
Q104.687 18.21 105.299 17.01
Q105.914 15.81 105.914 13.4125
Q105.914 11.005 105.299 9.8075
Q104.687 8.6075 103.459 8.6075
M103.459 7.3575
Q105.422 7.3575 106.457 8.91
Q107.492 10.46 107.492 13.4125
Q107.492 16.3575 106.457 17.91
Q105.422 19.46 103.459 19.46
Q101.499 19.46 100.464 17.91
Q99.4294 16.3575 99.4294 13.4125
Q99.4294 10.46 100.464 8.91
Q101.499 7.3575 103.459 7.3575
M110.124 7.5675
L111.702 7.5675
L111.702 12.4975
L116.937 7.5675
L118.969 7.5675
L113.179 13.005
L119.382 19.2325
L117.304 19.2325
L111.702 13.615
L111.702 19.2325
L110.124 19.2325
z

M130.664 17.8425
L130.664 19.2325
L125.976 19.2325
L125.976 17.8425
Q127.359 17.085 128.131 15.7875
Q128.906 14.49 128.906 12.9125
Q128.906 11.0375 127.874 9.905
Q126.844 8.7725 125.156 8.7725
Q123.469 8.7725 122.434 9.91
Q121.399 11.045 121.399 12.9125
Q121.399 14.49 122.176 15.7875
Q122.954 17.085 124.344 17.8425
L124.344 19.2325
L119.656 19.2325
L119.656 17.8425
L122.149 17.8425
Q120.914 16.755 120.346 15.5925
Q119.781 14.4275 119.781 12.99
Q119.781 10.505 121.276 8.9675
Q122.774 7.4275 125.156 7.4275
Q127.524 7.4275 129.026 8.9625
Q130.531 10.4975 130.531 12.9125
Q130.531 14.4275 129.976 15.585
Q129.421 16.74 128.164 17.8425
z
"/>
       <g id="text_3">
        <path d="
M169.68 72.785
Q168.463 72.785 167.847 73.985
Q167.235 75.1825 167.235 77.59
Q167.235 79.9875 167.847 81.1875
Q168.463 82.3875 169.68 82.3875
Q170.907 82.3875 171.52 81.1875
Q172.135 79.9875 172.135 77.59
Q172.135 75.1825 171.52 73.985
Q170.907 72.785 169.68 72.785
M169.68 71.535
Q171.643 71.535 172.678 73.0875
Q173.713 74.6375 173.713 77.59
Q173.713 80.535 172.678 82.0875
Q171.643 83.6375 169.68 83.6375
Q167.72 83.6375 166.685 82.0875
Q165.65 80.535 165.65 77.59
Q165.65 74.6375 166.685 73.0875
Q167.72 71.535 169.68 71.535
M176.485 81.425
L178.135 81.425
L178.135 83.41
L176.485 83.41
z

M181.846 82.0825
L184.423 82.0825
L184.423 73.1825
L181.618 73.745
L181.618 72.3075
L184.408 71.745
L185.986 71.745
L185.986 82.0825
L188.563 82.0825
L188.563 83.41
L181.846 83.41
z

M197.753 82.6575
L197.385 83.57
Q195.88 83.57 195.655 82.385
L193.545 83.57
Q192.648 83.57 192.248 83.17
L192.248 85.425
Q192.248 86.2575 191.993 86.85
L190.745 86.85
Q191.048 86.1625 191.048 85.4425
L191.048 76.1625
L192.313 76.1625
L192.313 81.025
Q192.313 82.435 193.625 82.435
Q194.073 82.435 194.695 81.9625
Q195.32 81.49 195.56 80.835
L195.56 76.1625
L196.825 76.1625
L196.825 81.3625
Q196.825 81.875 197.008 82.155
Q197.193 82.435 197.753 82.435
z

M199.402 71.745
L206.105 71.745
L206.105 73.075
L200.98 73.075
L200.98 76.5125
L205.605 76.5125
L205.605 77.84
L200.98 77.84
L200.98 83.41
L199.402 83.41
z
" style="stroke:#ffffff;stroke-width:4;"/>
        <path d="
M169.68 72.785
Q168.463 72.785 167.847 73.985
Q167.235 75.1825 167.235 77.59
Q167.235 79.9875 167.847 81.1875
Q168.463 82.3875 169.68 82.3875
Q170.907 82.3875 171.52 81.1875
Q172.135 79.9875 172.135 77.59
Q172.135 75.1825 171.52 73.985
Q170.907 72.785 169.68 72.785
M169.68 71.535
Q171.643 71.535 172.678 73.0875
Q173.713 74.6375 173.713 77.59
Q173.713 80.535 172.678 82.0875
Q171.643 83.6375 169.68 83.6375
Q167.72 83.6375 166.685 82.0875
Q165.65 80.535 165.65 77.59
Q165.65 74.6375 166.685 73.0875
Q167.72 71.535 169.68 71.535
M176.485 81.425
L178.135 81.425
L178.135 83.41
L176.485 83.41
z

M181.846 82.0825
L184.423 82.0825
L184.423 73.1825
L181.618 73.745
L181.618 72.3075
L184.408 71.745
L185.986 71.745
L185.986 82.0825
L188.563 82.0825
L188.563 83.41
L181.846 83.41
z

M197.753 82.6575
L197.385 83.57
Q195.88 83.57 195.655 82.385
L193.545 83.57
Q192.648 83.57 192.248 83.17
L192.248 85.425
Q192.248 86.2575 191.993 86.85
L190.745 86.85
Q191.048 86.1625 191.048 85.4425
L191.048 76.1625
L192.313 76.1625
L192.313 81.025
Q192.313 82.435 193.625 82.435
Q194.073 82.435 194.695 81.9625
Q195.32 81.49 195.56 80.835
L195.56 76.1625
L196.825 76.1625
L196.825 81.3625
Q196.825 81.875 197.008 82.155
Q197.193 82.435 197.753 82.435
z

M199.402 71.745
L206.105 71.745
L206.105 73.075
L200.98 73.075
L200.98 76.5125
L205.605 76.5125
L205.605 77.84
L200.98 77.84
L200.98 83.41
L199.402 83.41
z
"/>
       </g>
      </g>
      <defs>
       <clipPath id="pc8fe68db7b">
        <rect height="125.154" width="127.98" x="36.615" y="22.685"/>
       </clipPath>
      </defs>
     </g>
    </g>
   </g>
  </g>
 </g>
</svg>
